<?xml version="1.0" encoding="iso-8859-1"?>
<!-- Generator: Adobe Illustrator 18.0.0, SVG Export Plug-In . SVG Version: 6.00 Build 0)  -->
<!DOCTYPE svg PUBLIC "-//W3C//DTD SVG 1.1//EN" "http://www.w3.org/Graphics/SVG/1.1/DTD/svg11.dtd">
<svg version="1.1" id="Capa_1" xmlns="http://www.w3.org/2000/svg" xmlns:xlink="http://www.w3.org/1999/xlink" x="0px" y="0px"
	 viewBox="0 0 486.893 486.893" style="enable-background:new 0 0 486.893 486.893;" xml:space="preserve">
<path id="XMLID_325_" d="M485.054,149.171c-1.815-1.802-4.535-2.328-6.897-1.34L370,193.443c-2.361,1.005-3.89,3.352-3.828,5.924
	c0.05,2.581,1.672,4.867,4.086,5.761l17.649,6.545l-26.092,26.095c-15.051,15.045-35.048,23.33-56.342,23.33
	c-12.796,0-24.962-3.32-36.018-8.967l117.21-117.227l6.529,17.619c0.903,2.427,3.173,4.04,5.761,4.103
	c2.567,0.045,4.91-1.471,5.916-3.847l45.627-108.157c0.993-2.362,0.468-5.079-1.355-6.881c-1.799-1.815-4.519-2.345-6.88-1.354
	L334.107,82.015c-2.379,1.005-3.892,3.353-3.85,5.923c0.07,2.583,1.68,4.851,4.105,5.761l17.639,6.54L234.823,217.417
	c-15.195-29.907-10.66-67.336,14.314-92.327l26.095-26.092l6.523,17.618c0.912,2.427,3.182,4.036,5.77,4.099
	c2.568,0.049,4.908-1.466,5.915-3.843L339.057,8.729c0.986-2.363,0.462-5.074-1.344-6.897c-1.818-1.801-4.529-2.329-6.892-1.339
	L222.659,46.106c-2.362,1.005-3.893,3.351-3.829,5.921c0.049,2.584,1.679,4.866,4.084,5.76l17.65,6.546l-26.091,26.093
	c-44.239,44.239-49.425,112.93-15.625,162.965L7.189,445.049c-9.577,9.574-9.577,25.089,0,34.661
	c4.787,4.789,11.061,7.183,17.332,7.183c6.273,0,12.545-2.393,17.332-7.183l191.658-191.656
	c21.662,14.634,46.795,22.008,71.962,22.008c32.958,0,65.915-12.545,91.005-37.634l26.092-26.094l6.53,17.619
	c0.911,2.427,3.173,4.041,5.759,4.102c2.569,0.051,4.917-1.469,5.924-3.846l45.609-108.143
	C487.385,153.704,486.852,150.992,485.054,149.171z"/>
<g>
</g>
<g>
</g>
<g>
</g>
<g>
</g>
<g>
</g>
<g>
</g>
<g>
</g>
<g>
</g>
<g>
</g>
<g>
</g>
<g>
</g>
<g>
</g>
<g>
</g>
<g>
</g>
<g>
</g>
</svg>
